<svg xmlns="http://www.w3.org/2000/svg" viewBox="0 0 360.77 274.8"><defs><clipPath id="clip-path"><path id="SVGID" class="cls-1" d="M58.32 212.31h17.21V101.23l-17.21-27.7v138.78z" /></clipPath><clipPath id="clip-path-2"><path id="SVGID-2" data-name="SVGID" class="cls-1" d="M58.32 62.49v11.04l86.21 138.78H149.94l10.8-17.99L77.25 62.49H58.32z" /></clipPath><clipPath id="clip-path-3"><path id="SVGID-3" data-name="SVGID" style="fill:none" d="M216.87 62.49h-.13L148.86 175.6l11.88 18.72 70.37-117.4-8.96-14.43h-5.28z" /></clipPath><clipPath id="clip-path-4"><path id="SVGID-4" data-name="SVGID" class="cls-3" d="M217.85 99.19v-.01l71.57 113.13h18.9V200.7L231.11 76.92l-13.26 22.27z" /></clipPath><clipPath id="clip-path-5"><path id="SVGID-5" data-name="SVGID" class="cls-3" d="M291.14 62.49v110.83l17.18 27.38V62.49h-17.18z" /></clipPath><linearGradient id="linear-gradient" x1="-1338.5" y1="249.62" x2="-1337.48" y2="249.62" gradientTransform="scale(-147.5 147.5) rotate(52.895 -419.653 1468.88)" gradientUnits="userSpaceOnUse"><stop offset="0" stop-color="#ff6060" /><stop offset="1" stop-color="#5d35bc" /></linearGradient><style>.cls-1{fill:#5d358c}.cls-3{fill:#ff6060}</style></defs><g id="Layer_2" data-name="Layer 2"><g id="Layer_10" data-name="Layer 10"><path id="SVGID-6" data-name="SVGID" class="cls-1" d="M58.32 212.31h17.21V101.23l-17.21-27.7v138.78z" /><path class="cls-1" d="M58.32 73.53h17.21v138.78H58.32z" style="clip-path:url(#clip-path)" /><path id="SVGID-7" data-name="SVGID" class="cls-1" d="M58.32 62.49v11.04l86.21 138.78H149.94l10.8-17.99L77.25 62.49H58.32z" /><path class="cls-1" d="m120.99 0 98.07 154.17L98.07 274.8 0 120.63 120.99 0z" style="clip-path:url(#clip-path-2)" /><g style="clip-path:url(#clip-path-3)"><path style="fill:url(#linear-gradient)" d="m281.77 110.46-80.59 133.4-102.99-97.52 80.6-133.4 102.98 97.52z" /></g><path id="SVGID-8" data-name="SVGID" class="cls-3" d="M217.85 99.19v-.01l71.57 113.13h18.9V200.7L231.11 76.92l-13.26 22.27z" /><path class="cls-3" d="m274.1 21.99 86.66 139.11-108.69 106.14-86.67-139.11L274.1 21.99z" style="clip-path:url(#clip-path-4)" /><path id="SVGID-9" data-name="SVGID" class="cls-3" d="M291.14 62.49v110.83l17.18 27.38V62.49h-17.18z" /><path class="cls-3" d="M291.15 62.49h17.17V200.7h-17.17z" style="clip-path:url(#clip-path-5)" /></g></g></svg>